<svg xmlns="http://www.w3.org/2000/svg" xmlns:xlink="http://www.w3.org/1999/xlink" width="500" zoomAndPan="magnify" viewBox="0 0 375 374.999991" height="500" preserveAspectRatio="xMidYMid meet" version="1.0"><defs><clipPath id="31117a76ba"><path d="M 107 199 L 314 199 L 314 337.460938 L 107 337.460938 Z M 107 199 " clip-rule="nonzero"/></clipPath><clipPath id="f661d30fbc"><path d="M 10.824219 36.710938 L 364 36.710938 L 364 259 L 10.824219 259 Z M 10.824219 36.710938 " clip-rule="nonzero"/></clipPath><clipPath id="fdba557da8"><path d="M 69 36.710938 L 330 36.710938 L 330 235 L 69 235 Z M 69 36.710938 " clip-rule="nonzero"/></clipPath></defs><g clip-path="url(#31117a76ba)"><path fill="#bf1b2c" d="M 155.703125 249.320312 C 138.992188 249.320312 122.769531 248.003906 107.261719 245.523438 C 110.882812 251.558594 114.734375 257.453125 118.820312 263.1875 C 139.980469 292.886719 167.289062 318.363281 199.515625 337.480469 C 253.027344 305.742188 292.984375 256.453125 313.730469 199.4375 C 277.378906 229.761719 220.117188 249.320312 155.703125 249.320312 " fill-opacity="1" fill-rule="nonzero"/></g><path fill="#ed1c24" d="M 172.179688 257.101562 C 160.496094 257.101562 149.148438 256.179688 138.304688 254.445312 C 140.835938 258.667969 143.53125 262.789062 146.390625 266.796875 C 161.1875 287.566406 180.285156 305.382812 202.820312 318.75 C 240.238281 296.554688 268.179688 262.089844 282.691406 222.21875 C 257.265625 243.425781 217.222656 257.101562 172.179688 257.101562 " fill-opacity="1" fill-rule="nonzero"/><g clip-path="url(#f661d30fbc)"><path fill="#bf1b2c" d="M 297.335938 36.726562 C 325.324219 58.621094 342.117188 86.582031 342.117188 117.046875 C 342.117188 187.222656 253.058594 244.109375 143.199219 244.109375 C 92.421875 244.109375 46.09375 231.957031 10.941406 211.957031 C 47.417969 240.484375 102.917969 258.699219 165.078125 258.699219 C 274.9375 258.699219 363.992188 201.8125 363.992188 131.636719 C 363.992188 93.898438 338.234375 60 297.335938 36.726562 " fill-opacity="1" fill-rule="nonzero"/></g><g clip-path="url(#fdba557da8)"><path fill="#bf1b2c" d="M 133.824219 234.734375 C 229.714844 234.734375 309.753906 191.390625 328.558594 133.703125 C 329.242188 126.492188 329.632812 119.222656 329.71875 111.910156 L 281.433594 84.035156 L 199.515625 36.726562 L 69.316406 111.910156 C 69.8125 154.710938 80.710938 196.113281 100.15625 232.914062 C 111.101562 234.109375 122.347656 234.734375 133.824219 234.734375 " fill-opacity="1" fill-rule="nonzero"/></g><path fill="#ed1c24" d="M 147.90625 222.21875 C 223.242188 222.21875 286.125 188.164062 300.894531 142.851562 C 301.429688 137.179688 301.738281 131.46875 301.804688 125.726562 L 263.875 103.824219 L 199.515625 66.660156 L 97.230469 125.726562 C 97.617188 159.351562 106.179688 191.878906 121.457031 220.789062 C 130.054688 221.722656 138.890625 222.21875 147.90625 222.21875 " fill-opacity="1" fill-rule="nonzero"/></svg>